<svg width="58" height="36" viewBox="0 0 58 36" fill="none" xmlns="http://www.w3.org/2000/svg">
<g clip-path="url(#clip0_101_90)">
<path opacity="0.997283" d="M36.6574 3.05176e-05L28.6749 7.83952C28.674 7.84013 28.6732 7.84074 28.6723 7.84135L28.6712 7.84208L27.8952 8.60456C27.8826 8.62157 27.8701 8.63869 27.8578 8.65591C27.8446 8.67422 27.8317 8.69264 27.8189 8.71119C27.806 8.72985 27.7933 8.74864 27.7808 8.76754C27.7684 8.78633 27.7562 8.80523 27.7441 8.82424C27.7321 8.84339 27.7202 8.86265 27.7085 8.88202C27.6968 8.90129 27.6853 8.92066 27.674 8.94015C27.6627 8.95966 27.6516 8.97927 27.6406 8.99899C27.6298 9.01875 27.6191 9.0386 27.6087 9.05855C27.5981 9.07842 27.5876 9.0984 27.5774 9.11847C27.5673 9.1387 27.5574 9.15903 27.5477 9.17945C27.5379 9.19969 27.5283 9.22002 27.519 9.24043C27.5096 9.26091 27.5004 9.28148 27.4914 9.30213C27.4824 9.32285 27.4737 9.34366 27.4652 9.36454C27.4567 9.38539 27.4483 9.40631 27.4402 9.42731C27.432 9.44827 27.424 9.46932 27.4162 9.49043C27.4085 9.51152 27.401 9.53268 27.3937 9.55391C27.3863 9.57524 27.3792 9.59664 27.3723 9.61811C27.3654 9.63956 27.3587 9.66108 27.3523 9.68266C27.3458 9.70412 27.3395 9.72563 27.3334 9.74721C27.3274 9.76891 27.3216 9.79066 27.316 9.81247C27.3103 9.83418 27.3049 9.85593 27.2996 9.87774C27.2945 9.89968 27.2895 9.92167 27.2848 9.94371C27.2799 9.96566 27.2753 9.98765 27.271 10.0097C27.2666 10.0318 27.2625 10.0539 27.2586 10.076C27.2546 10.0981 27.2509 10.1202 27.2474 10.1424C27.2439 10.1646 27.2406 10.1868 27.2376 10.209C27.2346 10.2314 27.2318 10.2537 27.2292 10.2761C27.2266 10.2983 27.2241 10.3205 27.2219 10.3428C27.2198 10.3652 27.2179 10.3877 27.2161 10.4102C27.2143 10.4325 27.2128 10.4549 27.2114 10.4772C27.2101 10.4997 27.209 10.5222 27.2081 10.5446C27.2072 10.5671 27.2065 10.5896 27.206 10.612C27.2056 10.6345 27.2055 10.657 27.2056 10.6794C27.2055 10.7012 27.2056 10.723 27.206 10.7447C27.2065 10.7672 27.2072 10.7897 27.2081 10.8121C27.209 10.8346 27.2101 10.8571 27.2114 10.8795C27.2126 10.902 27.2141 10.9245 27.2158 10.9469C27.2175 10.9693 27.2194 10.9916 27.2216 11.014C27.2238 11.0363 27.2262 11.0587 27.2289 11.081C27.2316 11.1033 27.2345 11.1255 27.2376 11.1477C27.2406 11.17 27.2439 11.1922 27.2474 11.2144C27.2508 11.2367 27.2544 11.2589 27.2583 11.2811C27.2622 11.3031 27.2663 11.3251 27.2706 11.3471C27.275 11.3692 27.2796 11.3913 27.2844 11.4134C27.2892 11.4353 27.2941 11.4572 27.2993 11.479C27.3045 11.5008 27.31 11.5226 27.3157 11.5443C27.3212 11.5661 27.3271 11.5878 27.3331 11.6095C27.3392 11.6312 27.3454 11.6529 27.352 11.6744C27.3584 11.696 27.3651 11.7175 27.3719 11.739C27.3789 11.7603 27.386 11.7816 27.3934 11.8028C27.4006 11.8242 27.4082 11.8455 27.4159 11.8667C27.4235 11.8878 27.4314 11.9088 27.4395 11.9298C27.4476 11.9508 27.456 11.9717 27.4645 11.9926C27.473 12.0133 27.4818 12.034 27.4907 12.0546C27.4997 12.0753 27.5089 12.0958 27.5183 12.1163C27.5276 12.1369 27.5372 12.1573 27.547 12.1777C27.5567 12.198 27.5666 12.2182 27.5767 12.2383C27.5868 12.2585 27.5971 12.2786 27.6076 12.2986C27.6182 12.3185 27.629 12.3384 27.6399 12.3581C27.6509 12.3778 27.662 12.3974 27.6733 12.417C27.6846 12.4364 27.6961 12.4558 27.7078 12.4751C27.7195 12.4945 27.7314 12.5137 27.7434 12.5329C27.7555 12.5519 27.7677 12.5708 27.7801 12.5896C27.7925 12.6085 27.8051 12.6273 27.8179 12.6459C27.8306 12.6645 27.8436 12.6829 27.8567 12.7012C27.8699 12.7196 27.8832 12.7379 27.8967 12.7561C27.9102 12.7742 27.9238 12.7921 27.9377 12.81C27.9516 12.8279 27.9656 12.8458 27.9798 12.8635C27.9941 12.881 28.0085 12.8983 28.023 12.9155C28.0375 12.9329 28.0522 12.9501 28.067 12.9672C28.0819 12.9843 28.0971 13.0011 28.1124 13.0179C28.1276 13.0347 28.143 13.0513 28.1585 13.0678C28.1739 13.0844 28.1896 13.1008 28.2053 13.117C28.2213 13.1332 28.2374 13.1493 28.2536 13.1652C28.2697 13.181 28.2859 13.1967 28.3023 13.2122C28.3188 13.2279 28.3355 13.2433 28.3524 13.2586C28.3692 13.2739 28.3862 13.289 28.4032 13.3039C28.4203 13.3188 28.4375 13.3335 28.4548 13.3481C28.4721 13.3628 28.4895 13.3773 28.5071 13.3916C28.5248 13.4059 28.5426 13.4201 28.5605 13.4341C28.5784 13.448 28.5964 13.4618 28.6146 13.4754C28.6329 13.489 28.6513 13.5025 28.6698 13.5157C28.6882 13.529 28.7067 13.5421 28.7253 13.555C28.7441 13.5679 28.763 13.5806 28.782 13.5931C28.8009 13.6057 28.8199 13.618 28.839 13.6302C28.8583 13.6425 28.8776 13.6547 28.8971 13.6666C28.9165 13.6784 28.936 13.6901 28.9556 13.7015C28.9753 13.713 28.9952 13.7243 29.0151 13.7354C29.035 13.7466 29.055 13.7575 29.0751 13.7682C29.095 13.7789 29.1151 13.7893 29.1353 13.7996C29.1557 13.81 29.1761 13.8203 29.1967 13.8303C29.2172 13.8402 29.2378 13.85 29.2584 13.8595C29.2792 13.8691 29.3 13.8785 29.3209 13.8877C29.3418 13.8969 29.3627 13.906 29.3837 13.9148C29.4047 13.9236 29.4258 13.9321 29.4469 13.9405C29.4681 13.9489 29.4894 13.9571 29.5108 13.9651C29.5322 13.973 29.5536 13.9808 29.5751 13.9883C29.5967 13.996 29.6184 14.0035 29.6401 14.0107C29.6617 14.0178 29.6834 14.0247 29.7051 14.0314C29.7269 14.0383 29.7489 14.045 29.7708 14.0514C29.7928 14.0577 29.8148 14.0637 29.8369 14.0696C29.8589 14.0756 29.8809 14.0814 29.903 14.0871C29.9252 14.0926 29.9475 14.098 29.9698 14.1031C29.9921 14.1082 30.0143 14.1131 30.0366 14.1177C30.059 14.1225 30.0814 14.127 30.1038 14.1313C30.1263 14.1355 30.1488 14.1396 30.1714 14.1434C30.194 14.1473 30.2166 14.151 30.2393 14.1545C30.2619 14.1579 30.2845 14.1611 30.3072 14.1641C30.3298 14.167 30.3524 14.1698 30.3751 14.1723C30.3978 14.1749 30.4206 14.1773 30.4434 14.1794C30.4661 14.1816 30.4889 14.1835 30.5116 14.1851C30.5345 14.1869 30.5574 14.1884 30.5803 14.1898C30.603 14.1911 30.6258 14.1921 30.6485 14.193C30.6714 14.1938 30.6943 14.1944 30.7172 14.1948C30.74 14.1953 30.7629 14.1955 30.7858 14.1955C30.8081 14.1955 30.8304 14.1953 30.8526 14.1948C30.8755 14.1944 30.8984 14.1938 30.9213 14.193C30.9441 14.1921 30.967 14.1911 30.9899 14.1898C31.0127 14.1886 31.0354 14.1871 31.0582 14.1855C31.0809 14.1837 31.1037 14.1817 31.1264 14.1794C31.1492 14.1774 31.172 14.1751 31.1947 14.1727C31.2175 14.17 31.2402 14.1672 31.263 14.1641C31.2856 14.1611 31.3083 14.1579 31.3309 14.1545C31.3534 14.1511 31.3759 14.1476 31.3984 14.1438C31.421 14.14 31.4435 14.1359 31.466 14.1317C31.4884 14.1273 31.5108 14.1228 31.5331 14.1181C31.5555 14.1134 31.5777 14.1086 31.6 14.1035C31.6223 14.0983 31.6446 14.093 31.6668 14.0874C31.689 14.0819 31.7111 14.0762 31.7332 14.0703C31.7552 14.0643 31.7771 14.0582 31.799 14.0518C31.8209 14.0454 31.8428 14.0389 31.8647 14.0322C31.8866 14.0254 31.9083 14.0183 31.9301 14.0111C31.9517 14.004 31.9732 13.9966 31.9947 13.989C32.0162 13.9815 32.0376 13.9738 32.059 13.9658C32.0804 13.9578 32.1017 13.9496 32.1229 13.9412C32.1442 13.9329 32.1653 13.9243 32.1864 13.9155C32.2075 13.9067 32.2284 13.8977 32.2493 13.8884C32.2702 13.8792 32.291 13.8699 32.3117 13.8603C32.3324 13.8507 32.353 13.841 32.3735 13.831C32.3939 13.8211 32.4142 13.811 32.4345 13.8007C32.4548 13.7903 32.475 13.7797 32.4951 13.769C32.5152 13.7582 32.5352 13.7473 32.555 13.7362C32.575 13.7251 32.5948 13.7138 32.6146 13.7023C32.6342 13.6908 32.6537 13.6792 32.673 13.6673C32.6925 13.6555 32.7119 13.6435 32.7311 13.6313C32.7499 13.6194 32.7685 13.6072 32.7871 13.5949L32.7882 13.5942L33.7552 12.6445C33.7552 12.6444 33.7552 12.6442 33.7552 12.6441L46.6304 8.20621e-05L36.6574 3.05176e-05ZM33.5046 8.39159C33.5048 8.39159 33.5049 8.39159 33.505 8.39159C33.513 8.40082 33.521 8.41009 33.529 8.41941C33.5209 8.41009 33.5128 8.40082 33.5046 8.39159H33.5046ZM33.6749 8.60272C33.6751 8.60272 33.6752 8.60272 33.6753 8.60272C33.683 8.61337 33.6906 8.62407 33.6982 8.63481C33.6905 8.62407 33.6828 8.61337 33.675 8.60272H33.6749ZM33.7919 8.76926C33.792 8.76926 33.7921 8.76926 33.7923 8.76926C33.7997 8.78087 33.8071 8.79252 33.8144 8.80421C33.807 8.79252 33.7995 8.78087 33.7919 8.76926H33.7919ZM33.964 9.06028C33.9641 9.06028 33.9643 9.06028 33.9644 9.06028C33.9749 9.08015 33.9852 9.10012 33.9952 9.12019C33.985 9.10012 33.9746 9.08015 33.964 9.06028H33.964ZM34.025 9.18117C34.0251 9.18117 34.0253 9.18117 34.0254 9.18117C34.035 9.20141 34.0445 9.22174 34.0537 9.24216C34.0443 9.22174 34.0348 9.20141 34.025 9.18117H34.025ZM34.0809 9.30421C34.0811 9.30421 34.0812 9.30421 34.0813 9.30421C34.0901 9.32482 34.0987 9.3455 34.1071 9.36627C34.0986 9.3455 34.0899 9.32481 34.0809 9.30421H34.0809ZM34.1321 9.42903C34.1323 9.42903 34.1324 9.42903 34.1325 9.42903C34.1406 9.45 34.1485 9.47104 34.1561 9.49216C34.1483 9.47104 34.1403 9.45 34.1322 9.42903H34.1321ZM34.1786 9.55564C34.1787 9.55576 34.1789 9.55588 34.179 9.556C34.1862 9.57733 34.1932 9.59873 34.2001 9.6202C34.207 9.64153 34.2138 9.66293 34.2204 9.68439C34.2268 9.70597 34.2329 9.7276 34.2389 9.7493C34.245 9.771 34.251 9.79275 34.2567 9.81456C34.2622 9.83627 34.2676 9.85802 34.2727 9.87982C34.278 9.90177 34.283 9.92376 34.2879 9.9458C34.2926 9.96775 34.2971 9.98975 34.3014 10.0118C34.3057 10.0339 34.3098 10.056 34.3137 10.0781C34.3177 10.1002 34.3214 10.1223 34.325 10.1444C34.3284 10.1666 34.3317 10.1889 34.3347 10.2111C34.3377 10.2335 34.3405 10.2558 34.3431 10.2782C34.3457 10.3005 34.3482 10.3229 34.3504 10.3452C34.3525 10.3676 34.3545 10.3899 34.3562 10.4123C34.358 10.4346 34.3595 10.457 34.3609 10.4793C34.3621 10.5007 34.363 10.5221 34.3638 10.5435C34.3629 10.522 34.3618 10.5005 34.3605 10.479C34.3592 10.4566 34.3576 10.4343 34.3558 10.4119C34.3541 10.3896 34.3522 10.3672 34.35 10.3449C34.3478 10.3225 34.3454 10.3002 34.3427 10.2778C34.3402 10.2555 34.3374 10.2331 34.3344 10.2108C34.3313 10.1885 34.3281 10.1663 34.3246 10.1441C34.321 10.1219 34.3173 10.0998 34.3133 10.0778C34.3094 10.0556 34.3053 10.0335 34.301 10.0114C34.2967 9.98939 34.2922 9.9674 34.2875 9.94545C34.2827 9.92341 34.2776 9.90141 34.2723 9.87947C34.2672 9.85767 34.2618 9.83591 34.2563 9.81421C34.2506 9.7924 34.2447 9.77064 34.2385 9.74894C34.2326 9.72725 34.2264 9.70561 34.22 9.68403C34.2134 9.66257 34.2066 9.64117 34.1997 9.61984C34.1928 9.59837 34.1858 9.57697 34.1786 9.55564L34.1786 9.55564ZM34.3638 10.5485C34.3648 10.5704 34.3655 10.5922 34.366 10.6141C34.3661 10.6249 34.3661 10.6358 34.366 10.6466C34.3659 10.6356 34.3658 10.6247 34.3656 10.6138C34.3652 10.592 34.3646 10.5703 34.3638 10.5485H34.3638ZM34.366 10.7129C34.3661 10.7243 34.3661 10.7357 34.366 10.7471C34.3654 10.7694 34.3645 10.7916 34.3634 10.8138C34.3644 10.7915 34.3651 10.7691 34.3656 10.7468C34.3658 10.7355 34.3659 10.7242 34.366 10.7129ZM34.3497 11.016C34.3477 11.0384 34.3455 11.0608 34.3431 11.0831C34.3403 11.1052 34.3373 11.1273 34.334 11.1494C34.3372 11.1272 34.3401 11.105 34.3428 11.0827C34.3453 11.0605 34.3476 11.0383 34.3497 11.016ZM34.3006 11.3491C34.2962 11.3712 34.2916 11.3932 34.2868 11.4151C34.2916 11.3932 34.2962 11.3712 34.3006 11.3491ZM34.1554 11.8684C34.1476 11.8895 34.1396 11.9106 34.1314 11.9315C34.1396 11.9106 34.1476 11.8895 34.1554 11.8684ZM33.8975 12.4187C33.8862 12.4382 33.8747 12.4575 33.8631 12.4768C33.8747 12.4575 33.8862 12.4382 33.8975 12.4187Z" fill="#F20909"/>
<path opacity="0.997283" d="M2.30533 -0.000108009L14.4458 11.9225L19.4808 16.8675L14.627 21.6343V21.6346L-0.000244141 35.9998H9.9734L24.4423 21.7901C24.4282 21.803 24.4141 21.8159 24.3999 21.8287C24.3762 21.85 24.3523 21.8711 24.3283 21.8921C24.3283 21.892 24.3283 21.8919 24.3283 21.8918C24.3523 21.8708 24.3762 21.8496 24.3999 21.8283C24.4141 21.8155 24.4282 21.8027 24.4423 21.7898L24.4678 21.7648L24.8193 21.4196C24.8385 21.3993 24.8577 21.3788 24.8767 21.3582C24.8983 21.3347 24.9197 21.3111 24.9409 21.2873C24.9622 21.2635 24.9832 21.2396 25.0041 21.2156C25.025 21.1916 25.0457 21.1675 25.0662 21.1432C25.0868 21.119 25.1073 21.0946 25.1276 21.0701C25.1479 21.0455 25.1679 21.0208 25.1879 20.9959C25.2078 20.9711 25.2275 20.9461 25.2471 20.921C25.2666 20.8959 25.286 20.8707 25.3052 20.8454C25.3245 20.82 25.3436 20.7944 25.3625 20.7687C25.3814 20.7432 25.4 20.7175 25.4185 20.6917C25.437 20.6658 25.4554 20.6398 25.4737 20.6136C25.4918 20.5876 25.5097 20.5614 25.5274 20.5351C25.5451 20.5089 25.5627 20.4825 25.5801 20.456C25.5801 20.4558 25.5801 20.4557 25.5801 20.4556C25.5976 20.4291 25.6149 20.4025 25.632 20.3757C25.649 20.3488 25.6658 20.3219 25.6825 20.2948C25.6991 20.2678 25.7156 20.2407 25.7319 20.2134C25.7481 20.1862 25.7642 20.1589 25.7802 20.1314C25.7961 20.1039 25.8118 20.0764 25.8274 20.0487C25.8429 20.021 25.8583 19.9932 25.8735 19.9652C25.8887 19.9374 25.9037 19.9095 25.9185 19.8814C25.9332 19.8533 25.9478 19.8252 25.9621 19.7969C25.9764 19.7686 25.9906 19.7402 26.0046 19.7117C26.0186 19.6832 26.0324 19.6547 26.046 19.6261C26.0596 19.5974 26.073 19.5686 26.0863 19.5398C26.0994 19.5109 26.1124 19.4818 26.1251 19.4528C26.1379 19.4238 26.1505 19.3948 26.1629 19.3657C26.1752 19.3366 26.1873 19.3073 26.1992 19.278C26.2113 19.2486 26.2231 19.2191 26.2348 19.1896C26.2464 19.16 26.2578 19.1304 26.2689 19.1008C26.28 19.0711 26.2909 19.0414 26.3016 19.0116C26.3124 18.9818 26.3229 18.952 26.3332 18.9221C26.3436 18.8922 26.3538 18.8622 26.3637 18.8322C26.3736 18.8021 26.3833 18.7719 26.3928 18.7416C26.4023 18.7115 26.4116 18.6813 26.4207 18.651C26.4298 18.6207 26.4386 18.5902 26.4472 18.5597C26.4559 18.5294 26.4644 18.4989 26.4727 18.4684C26.4809 18.4378 26.4889 18.4072 26.4966 18.3764C26.5045 18.3458 26.5121 18.3151 26.5195 18.2844C26.5269 18.2536 26.534 18.2227 26.5409 18.1917C26.5479 18.161 26.5547 18.1302 26.5613 18.0993C26.5613 18.0992 26.5613 18.0991 26.5613 18.099C26.5678 18.0681 26.5741 18.0372 26.5802 18.0062C26.5862 17.9751 26.592 17.944 26.5976 17.9128C26.6032 17.8817 26.6087 17.8505 26.6139 17.8194C26.6192 17.7883 26.6243 17.7571 26.6292 17.7259C26.634 17.6947 26.6386 17.6634 26.643 17.6321C26.6473 17.6008 26.6514 17.5694 26.6553 17.538C26.6593 17.5066 26.663 17.4752 26.6666 17.4438C26.6701 17.4124 26.6733 17.3808 26.6764 17.3493C26.6794 17.3178 26.6821 17.2863 26.6847 17.2548C26.6874 17.2233 26.6898 17.1918 26.692 17.1603C26.6943 17.1288 26.6963 17.0973 26.6982 17.0658C26.6998 17.0342 26.7013 17.0026 26.7025 16.9709C26.7038 16.9394 26.7049 16.9079 26.7058 16.8764C26.7067 16.8448 26.7074 16.8132 26.708 16.7816C26.7084 16.7499 26.7087 16.7183 26.7087 16.6867C26.7086 16.6753 26.7085 16.6639 26.7083 16.6525C26.7082 16.6208 26.7078 16.5892 26.7072 16.5576C26.7066 16.526 26.7057 16.4944 26.7047 16.4627C26.7037 16.4311 26.7025 16.3995 26.701 16.3679C26.6996 16.3364 26.6979 16.3049 26.6959 16.2734C26.6941 16.2417 26.6921 16.2101 26.6898 16.1785C26.6873 16.147 26.6847 16.1155 26.6818 16.084C26.6791 16.0526 26.6762 16.0212 26.6731 15.9898C26.6698 15.9583 26.6663 15.9268 26.6625 15.8953C26.6589 15.8639 26.655 15.8325 26.6509 15.8012C26.6469 15.7699 26.6427 15.7386 26.6382 15.7074C26.6336 15.6761 26.6287 15.6448 26.6237 15.6136C26.6188 15.5823 26.6137 15.551 26.6084 15.5198C26.603 15.4887 26.5973 15.4577 26.5914 15.4267C26.5855 15.3955 26.5795 15.3644 26.5732 15.3333C26.567 15.3023 26.5606 15.2714 26.554 15.2406C26.5473 15.2096 26.5404 15.1787 26.5333 15.1478C26.5261 15.117 26.5187 15.0862 26.5111 15.0555C26.5036 15.0247 26.4958 14.9941 26.4879 14.9635C26.48 14.9328 26.4719 14.9023 26.4635 14.8718C26.4552 14.8413 26.4466 14.8109 26.4378 14.7805C26.4289 14.7501 26.4198 14.7198 26.4105 14.6896C26.4013 14.6592 26.3919 14.6289 26.3822 14.5986C26.3726 14.5685 26.3628 14.5384 26.3528 14.5084C26.3427 14.4785 26.3324 14.4486 26.3219 14.4189C26.3219 14.4188 26.3219 14.4186 26.3219 14.4185C26.3115 14.3887 26.3008 14.359 26.29 14.3294C26.279 14.2996 26.2679 14.2698 26.2566 14.2402C26.2453 14.2106 26.2338 14.1812 26.2221 14.1518C26.2103 14.1223 26.1983 14.0929 26.1861 14.0637C26.1741 14.0343 26.1619 14.0051 26.1494 13.9759C26.1368 13.9468 26.124 13.9178 26.1109 13.8889C26.0981 13.8599 26.085 13.8311 26.0717 13.8023C26.0584 13.7735 26.0448 13.7449 26.031 13.7163C26.0173 13.6877 26.0034 13.6591 25.9893 13.6307C25.9752 13.6023 25.9609 13.574 25.9464 13.5458C25.9319 13.5177 25.9171 13.4896 25.9021 13.4617C25.8873 13.4336 25.8723 13.4057 25.8571 13.3779C25.8418 13.3501 25.8263 13.3224 25.8106 13.2948C25.795 13.2671 25.7791 13.2395 25.7631 13.212C25.7469 13.1847 25.7306 13.1575 25.714 13.1304C25.6976 13.1033 25.681 13.0763 25.6643 13.0494C25.6643 13.0493 25.6643 13.0492 25.6643 13.049C25.6475 13.0221 25.6306 12.9952 25.6134 12.9684C25.5962 12.9418 25.5788 12.9153 25.5611 12.8889C25.5437 12.8624 25.526 12.836 25.5081 12.8097C25.4902 12.7835 25.472 12.7573 25.4537 12.7313C25.4354 12.7052 25.417 12.6793 25.3985 12.6535C25.3798 12.6277 25.3609 12.6021 25.3418 12.5765C25.3229 12.5511 25.3037 12.5257 25.2844 12.5005C25.2651 12.4752 25.2456 12.45 25.226 12.4249C25.2062 12.4 25.1862 12.3751 25.166 12.3504C25.146 12.3258 25.1258 12.3013 25.1054 12.2769C25.1054 12.2768 25.1054 12.2767 25.1054 12.2766C25.0851 12.2522 25.0647 12.2279 25.044 12.2038C25.0233 12.1795 25.0023 12.1554 24.9812 12.1314C24.9602 12.1075 24.939 12.0837 24.9177 12.0601C24.8985 12.0391 24.8793 12.0181 24.8599 11.9973L24.8566 11.9938L24.65 11.7908L24.3955 11.5412C24.3953 11.5411 24.3952 11.5409 24.3951 11.5408L12.6435 -0.000152588L2.30533 -0.000108009ZM24.2557 21.9545C24.2557 21.9547 24.2557 21.9548 24.2557 21.9549C24.2314 21.9755 24.2069 21.996 24.1823 22.0162C24.1823 22.0161 24.1823 22.016 24.1823 22.0159C24.2069 21.9956 24.2314 21.9751 24.2557 21.9545ZM24.1079 22.0765C24.1079 22.0766 24.1079 22.0767 24.1079 22.0769C24.083 22.0969 24.0579 22.1167 24.0327 22.1364C24.0076 22.1561 23.9823 22.1756 23.9568 22.1949C23.9313 22.2142 23.9056 22.2334 23.8798 22.2523C23.8542 22.2714 23.8284 22.2903 23.8025 22.309C23.7765 22.3276 23.7503 22.3461 23.7241 22.3643C23.7241 22.3642 23.7241 22.3641 23.7241 22.3639C23.7503 22.3457 23.7765 22.3273 23.8025 22.3087C23.8284 22.2899 23.8542 22.271 23.8798 22.252C23.9056 22.2331 23.9313 22.2141 23.9568 22.1949C23.9568 22.1948 23.9568 22.1947 23.9568 22.1945C23.9823 22.1752 24.0076 22.1557 24.0327 22.1361C24.0579 22.1164 24.083 22.0965 24.1079 22.0765V22.0765ZM23.6449 22.4185C23.6449 22.4186 23.6449 22.4188 23.6449 22.4189C23.6184 22.4368 23.5918 22.4545 23.565 22.472C23.5384 22.4897 23.5116 22.5071 23.4847 22.5244C23.4577 22.5416 23.4306 22.5586 23.4034 22.5754C23.4034 22.5753 23.4034 22.5752 23.4034 22.5751C23.4306 22.5583 23.4577 22.5413 23.4847 22.5241C23.5116 22.5068 23.5384 22.4893 23.565 22.4716C23.5918 22.4541 23.6184 22.4364 23.6449 22.4185V22.4185ZM23.3213 22.6254C23.3213 22.6255 23.3213 22.6256 23.3213 22.6257C23.2938 22.6422 23.2662 22.6585 23.2385 22.6746C23.2109 22.6907 23.1832 22.7066 23.1554 22.7224C23.1554 22.7223 23.1554 22.7221 23.1554 22.722C23.1832 22.7063 23.2109 22.6903 23.2385 22.6742C23.2662 22.6581 23.2938 22.6418 23.3213 22.6254V22.6254ZM23.0711 22.7687C23.0711 22.7688 23.0711 22.769 23.0711 22.7691C23.043 22.7845 23.0148 22.7997 22.9865 22.8147C22.9583 22.8298 22.93 22.8447 22.9015 22.8593C22.873 22.8739 22.8443 22.8883 22.8155 22.9025C22.7868 22.9168 22.758 22.931 22.7291 22.9449C22.7001 22.9588 22.671 22.9724 22.6419 22.9859C22.6128 22.9994 22.5836 23.0127 22.5544 23.0259C22.5251 23.0389 22.4956 23.0517 22.4661 23.0644C22.4367 23.0771 22.4072 23.0895 22.3775 23.1018C22.3478 23.1142 22.3181 23.1263 22.2882 23.1382C22.2584 23.1501 22.2285 23.1617 22.1985 23.1732C22.1686 23.1848 22.1385 23.1962 22.1084 23.2074C22.0784 23.2184 22.0482 23.2292 22.018 23.2398C21.9877 23.2506 21.9573 23.2612 21.9269 23.2716C21.8964 23.2818 21.8659 23.2918 21.8354 23.3015C21.8048 23.3115 21.7742 23.3212 21.7435 23.3308C21.7435 23.3307 21.7435 23.3305 21.7435 23.3304C21.7742 23.3209 21.8048 23.3111 21.8354 23.3012C21.8659 23.2914 21.8964 23.2814 21.9269 23.2712C21.9573 23.261 21.9877 23.2505 22.018 23.2398C22.018 23.2397 22.018 23.2396 22.018 23.2395C22.0482 23.2289 22.0784 23.218 22.1084 23.207C22.1385 23.1958 22.1686 23.1844 22.1985 23.1728C22.2285 23.1613 22.2584 23.1497 22.2882 23.1378C22.3181 23.126 22.3478 23.114 22.3775 23.1018C22.3775 23.1017 22.3775 23.1016 22.3775 23.1014C22.4072 23.0892 22.4367 23.0767 22.4661 23.064C22.4956 23.0514 22.5251 23.0385 22.5544 23.0255C22.5836 23.0124 22.6128 22.9991 22.6419 22.9855C22.671 22.9722 22.7001 22.9586 22.7291 22.9449C22.7291 22.9448 22.7291 22.9446 22.7291 22.9445C22.758 22.9307 22.7868 22.9167 22.8155 22.9024C22.8155 22.9023 22.8155 22.9022 22.8155 22.9021C22.8443 22.888 22.873 22.8737 22.9015 22.8593C22.9015 22.8592 22.9015 22.859 22.9015 22.8589C22.93 22.8442 22.9583 22.8294 22.9865 22.8143C23.0148 22.7993 23.043 22.7841 23.0711 22.7687V22.7687ZM21.6509 23.3582C21.6509 23.3584 21.6509 23.3585 21.6509 23.3586C21.6201 23.3676 21.5892 23.3764 21.5583 23.385C21.5274 23.3936 21.4964 23.4021 21.4653 23.4103C21.4343 23.4186 21.4032 23.4267 21.372 23.4346C21.3408 23.4424 21.3096 23.45 21.2783 23.4574C21.247 23.4647 21.2157 23.4719 21.1843 23.4788C21.1528 23.4858 21.1214 23.4926 21.0898 23.4991C21.0584 23.5057 21.0269 23.5122 20.9954 23.5184C20.9639 23.5245 20.9323 23.5305 20.9006 23.5362C20.869 23.5419 20.8372 23.5474 20.8055 23.5526C20.7737 23.5579 20.7419 23.5631 20.71 23.568C20.6782 23.5728 20.6464 23.5774 20.6145 23.5819C20.5827 23.5864 20.5508 23.5906 20.519 23.5947C20.4871 23.5987 20.4551 23.6025 20.4231 23.6061C20.3912 23.6097 20.3592 23.613 20.3272 23.6161C20.2952 23.6193 20.2631 23.6223 20.231 23.625C20.199 23.6277 20.1669 23.6302 20.1348 23.6325C20.1026 23.6349 20.0704 23.637 20.0382 23.6389C20.0061 23.6408 19.974 23.6425 19.942 23.6439C19.9098 23.6453 19.8776 23.6465 19.8454 23.6475C19.8132 23.6485 19.781 23.6494 19.7488 23.65C19.7167 23.6506 19.6846 23.6509 19.6525 23.6511C19.6846 23.6508 19.7167 23.6503 19.7488 23.6496C19.781 23.649 19.8132 23.6482 19.8454 23.6471C19.8776 23.6461 19.9098 23.6449 19.942 23.6435C19.974 23.6421 20.0061 23.6404 20.0382 23.6386C20.0704 23.6366 20.1026 23.6345 20.1348 23.6321C20.1669 23.6299 20.199 23.6274 20.231 23.6246C20.2631 23.6219 20.2952 23.6189 20.3272 23.6157C20.3592 23.6126 20.3912 23.6093 20.4231 23.6057C20.4551 23.6022 20.4871 23.5984 20.519 23.5943C20.5508 23.5903 20.5827 23.586 20.6145 23.5815C20.6464 23.5771 20.6782 23.5724 20.71 23.5676C20.7419 23.5628 20.7737 23.5578 20.8055 23.5526C20.8055 23.5525 20.8055 23.5524 20.8055 23.5522C20.8372 23.547 20.869 23.5415 20.9006 23.5359C20.9323 23.5301 20.9639 23.5242 20.9954 23.518C21.0269 23.5118 21.0584 23.5054 21.0898 23.4988C21.1214 23.4923 21.1528 23.4856 21.1843 23.4788C21.1843 23.4787 21.1843 23.4785 21.1843 23.4784C21.2157 23.4715 21.247 23.4644 21.2783 23.457C21.3096 23.4496 21.3408 23.442 21.372 23.4342C21.4032 23.4263 21.4343 23.4182 21.4653 23.4099C21.4964 23.4017 21.5274 23.3933 21.5583 23.3846C21.5892 23.376 21.6201 23.3672 21.6509 23.3582V23.3582ZM18.7505 23.5986C18.7824 23.6024 18.8144 23.606 18.8464 23.6093C18.8784 23.6127 18.9105 23.6159 18.9426 23.6189C18.9105 23.6161 18.8784 23.613 18.8464 23.6097C18.8144 23.6062 18.7824 23.6025 18.7505 23.5986ZM19.0388 23.6275C19.0709 23.6301 19.103 23.6325 19.1351 23.6346C19.1671 23.6368 19.1992 23.6386 19.2313 23.6403C19.1992 23.6388 19.1671 23.637 19.1351 23.635C19.103 23.6327 19.0709 23.6302 19.0388 23.6275ZM19.3315 23.645C19.3625 23.6462 19.3935 23.6473 19.4245 23.6482C19.4566 23.649 19.4886 23.6496 19.5207 23.65C19.5529 23.6506 19.5851 23.651 19.6173 23.6511C19.5851 23.6511 19.5529 23.6508 19.5207 23.6504C19.4886 23.65 19.4566 23.6494 19.4245 23.6486C19.3935 23.6476 19.3625 23.6464 19.3315 23.645V23.645Z" fill="black"/>
<path opacity="0.997283" d="M22.759 26.138C22.7367 26.138 22.7144 26.1382 22.6922 26.1387C22.6693 26.1391 22.6464 26.1397 22.6235 26.1405C22.6006 26.1414 22.5778 26.1424 22.5549 26.1437C22.5321 26.1451 22.5094 26.1466 22.4866 26.1484C22.4638 26.1501 22.4411 26.152 22.4183 26.1541C22.3956 26.1562 22.3728 26.1586 22.3501 26.1612C22.3273 26.1637 22.3045 26.1665 22.2818 26.1694C22.2591 26.1724 22.2365 26.1756 22.2139 26.179C22.1913 26.1824 22.1688 26.186 22.1464 26.1897C22.1238 26.1937 22.1013 26.1978 22.0788 26.2022C22.0564 26.2064 22.034 26.2108 22.0116 26.2154C21.9892 26.2201 21.9668 26.225 21.9444 26.23C21.9222 26.2352 21.9001 26.2405 21.878 26.2461C21.8558 26.2516 21.8336 26.2573 21.8115 26.2632C21.7894 26.2692 21.7674 26.2754 21.7454 26.2818C21.7236 26.2881 21.7018 26.2946 21.6801 26.3014C21.6582 26.3082 21.6364 26.3152 21.6147 26.3224C21.5931 26.3296 21.5716 26.3369 21.5501 26.3445C21.5286 26.3522 21.5071 26.36 21.4858 26.3681C21.4644 26.3759 21.4431 26.384 21.4219 26.3923C21.4006 26.4008 21.3794 26.4095 21.3583 26.4183C21.3373 26.4271 21.3164 26.436 21.2955 26.4451C21.2746 26.4543 21.2538 26.4637 21.2331 26.4733C21.2124 26.4828 21.1918 26.4926 21.1713 26.5025C21.1509 26.5125 21.1305 26.5228 21.1103 26.5332C21.09 26.5434 21.0698 26.5539 21.0497 26.5646C21.0296 26.5753 21.0096 26.5862 20.9898 26.5974C20.9698 26.6085 20.9499 26.6198 20.9302 26.6313C20.9106 26.6427 20.8911 26.6544 20.8717 26.6662C20.8522 26.678 20.8329 26.69 20.8136 26.7022C20.7944 26.7144 20.7753 26.7268 20.7563 26.7393C20.7374 26.7519 20.7186 26.7646 20.7 26.7775C20.6812 26.7905 20.6626 26.8037 20.644 26.8171C20.6256 26.8303 20.6074 26.8438 20.5892 26.8574C20.571 26.871 20.553 26.8848 20.5351 26.8987C20.5172 26.9126 20.4994 26.9266 20.4817 26.9408C20.464 26.9551 20.4465 26.9696 20.4291 26.9843C20.4195 26.9925 20.4099 27.0007 20.4004 27.0089L20.0652 27.3381C20.0643 27.339 20.0635 27.34 20.0627 27.3409L11.2456 36H21.3427L25.0671 32.3424C25.0568 32.351 25.0466 32.3595 25.0362 32.368C25.0186 32.3823 25.0008 32.3965 24.9828 32.4105C24.9828 32.4104 24.9828 32.4102 24.9828 32.4101C25.0008 32.3961 25.0186 32.382 25.0362 32.3677C25.0466 32.3592 25.0568 32.3506 25.0671 32.342L25.4956 31.9212C25.504 31.9115 25.5124 31.9017 25.5206 31.8919C25.5352 31.8747 25.5496 31.8573 25.5639 31.8399C25.5781 31.8222 25.5921 31.8043 25.606 31.7864C25.6198 31.7685 25.6335 31.7506 25.647 31.7325C25.6605 31.7144 25.6738 31.6963 25.687 31.6779C25.7001 31.6595 25.713 31.641 25.7258 31.6223C25.7386 31.6038 25.7512 31.5851 25.7636 31.5663C25.7761 31.5474 25.7885 31.5284 25.8006 31.5093C25.8127 31.4902 25.8245 31.4711 25.8362 31.4518C25.8479 31.4325 25.8594 31.413 25.8707 31.3933C25.882 31.3738 25.8932 31.3542 25.9041 31.3345C25.915 31.3148 25.9256 31.2949 25.9361 31.275C25.9467 31.2551 25.9571 31.2351 25.9673 31.215C25.9774 31.1949 25.9874 31.1747 25.9971 31.1544C26.0069 31.134 26.0164 31.1136 26.0258 31.0931C26.0352 31.0726 26.0444 31.052 26.0534 31.0314C26.0623 31.0106 26.071 30.9898 26.0795 30.969C26.0881 30.9482 26.0964 30.9274 26.1046 30.9065C26.1126 30.8855 26.1205 30.8643 26.1282 30.8431C26.136 30.822 26.1436 30.8008 26.151 30.7796C26.1583 30.7583 26.1653 30.7369 26.1721 30.7154C26.1791 30.6941 26.1859 30.6727 26.1925 30.6512C26.199 30.6296 26.2052 30.608 26.2113 30.5863C26.2173 30.5646 26.2232 30.5428 26.2288 30.521C26.2344 30.4993 26.2399 30.4776 26.2451 30.4558C26.2503 30.4339 26.2552 30.4121 26.26 30.3901C26.2648 30.3681 26.2694 30.346 26.2738 30.3238C26.2781 30.3019 26.2822 30.2799 26.2861 30.2578C26.2901 30.2356 26.2939 30.2134 26.2974 30.1911C26.3009 30.1689 26.3041 30.1467 26.3072 30.1245C26.3102 30.1023 26.313 30.08 26.3156 30.0578C26.3182 30.0354 26.3206 30.0131 26.3228 29.9907C26.325 29.9684 26.3269 29.946 26.3286 29.9237C26.3304 29.9012 26.332 29.8787 26.3333 29.8563C26.3347 29.8338 26.3357 29.8113 26.3366 29.7889C26.3375 29.7665 26.3381 29.7442 26.3385 29.7218C26.3389 29.6994 26.3392 29.6769 26.3392 29.6544C26.3392 29.6325 26.3389 29.6107 26.3385 29.5888C26.3381 29.5663 26.3375 29.5438 26.3366 29.5214C26.3357 29.4989 26.3347 29.4764 26.3333 29.454C26.3321 29.4316 26.3307 29.4093 26.329 29.3869C26.3271 29.3644 26.3251 29.342 26.3228 29.3195C26.3207 29.2973 26.3184 29.2751 26.3159 29.2528C26.3132 29.2305 26.3103 29.2081 26.3072 29.1858C26.3041 29.1635 26.3009 29.1413 26.2974 29.1191C26.294 29.097 26.2904 29.0749 26.2865 29.0528C26.2826 29.0306 26.2785 29.0085 26.2742 28.9864C26.2698 28.9644 26.2652 28.9424 26.2604 28.9205C26.2556 28.8984 26.2507 28.8764 26.2455 28.8545C26.2402 28.8327 26.2348 28.8109 26.2291 28.7892C26.2235 28.7674 26.2177 28.7457 26.2117 28.724C26.2056 28.7023 26.1993 28.6806 26.1928 28.6591C26.1864 28.6376 26.1797 28.6162 26.1728 28.5949C26.1659 28.5734 26.1588 28.552 26.1514 28.5307C26.1441 28.5094 26.1366 28.4883 26.1289 28.4672C26.1212 28.4459 26.1134 28.4248 26.1053 28.4037C26.0972 28.3828 26.0888 28.362 26.0802 28.3413C26.0717 28.3204 26.063 28.2996 26.0541 28.2789C26.0451 28.2582 26.0359 28.2377 26.0265 28.2172C26.0171 28.1966 26.0076 28.1762 25.9978 28.1558C25.9881 28.1355 25.9782 28.1153 25.968 28.0952C25.9579 28.075 25.9477 28.0549 25.9372 28.0349C25.9266 28.0151 25.9158 27.9954 25.9049 27.9757C25.8939 27.9559 25.8828 27.9362 25.8714 27.9165C25.8601 27.8971 25.8486 27.8777 25.8369 27.8584C25.8253 27.8392 25.8134 27.82 25.8014 27.801C25.7893 27.7819 25.7771 27.7628 25.7647 27.7439C25.7523 27.725 25.7397 27.7062 25.7269 27.6876C25.7141 27.669 25.7012 27.6506 25.6881 27.6323C25.6749 27.6139 25.6616 27.5956 25.6481 27.5774C25.6346 27.5593 25.6209 27.5414 25.6071 27.5235C25.5932 27.5057 25.5792 27.488 25.565 27.4704C25.5507 27.4528 25.5363 27.4353 25.5217 27.418C25.5196 27.4153 25.5174 27.4127 25.5152 27.4101L25.0449 26.9486C25.0424 26.9465 25.0399 26.9443 25.0373 26.9422C25.0198 26.9279 25.0021 26.9137 24.9843 26.8998C24.9663 26.8858 24.9481 26.872 24.9298 26.8584C24.9117 26.8448 24.8934 26.8314 24.875 26.8181C24.8566 26.8047 24.8381 26.7915 24.8194 26.7785C24.8007 26.7656 24.7818 26.7529 24.7628 26.7404C24.7439 26.7278 24.7249 26.7154 24.7058 26.7033C24.6865 26.6911 24.6671 26.6791 24.6477 26.6672C24.6283 26.6554 24.6088 26.6438 24.5892 26.6323C24.5695 26.6208 24.5496 26.6095 24.5296 26.5984C24.5098 26.5873 24.4898 26.5764 24.4697 26.5656C24.4496 26.5548 24.4294 26.5443 24.4091 26.5339C24.3888 26.5236 24.3685 26.5135 24.3481 26.5035C24.3276 26.4935 24.307 26.4836 24.2863 26.4739C24.2656 26.4644 24.2448 26.455 24.2239 26.4458C24.203 26.4367 24.1821 26.4277 24.1611 26.419C24.14 26.4101 24.1188 26.4015 24.0975 26.393C24.0764 26.3846 24.0552 26.3764 24.034 26.3684C24.0125 26.3605 23.9909 26.3527 23.9693 26.3452C23.9478 26.3376 23.9263 26.3303 23.9047 26.3231C23.883 26.3159 23.8612 26.3089 23.8393 26.3021C23.8176 26.2953 23.7958 26.2888 23.7739 26.2824C23.752 26.276 23.7299 26.2699 23.7079 26.2639C23.6858 26.2579 23.6636 26.252 23.6414 26.2464C23.6193 26.241 23.5971 26.2358 23.5749 26.2307C23.5527 26.2255 23.5304 26.2205 23.5081 26.2158C23.4857 26.2112 23.4631 26.2067 23.4406 26.2026C23.4182 26.1982 23.3958 26.194 23.3734 26.1901C23.3508 26.1863 23.3282 26.1827 23.3055 26.1794C23.2829 26.1759 23.2603 26.1727 23.2376 26.1697C23.215 26.1667 23.1923 26.1638 23.1697 26.1612C23.1469 26.1586 23.1242 26.1562 23.1014 26.154C23.0787 26.1519 23.0559 26.15 23.0331 26.1483C23.0103 26.1466 22.9874 26.145 22.9645 26.1437C22.9416 26.1424 22.9188 26.1413 22.8959 26.1405C22.8731 26.1397 22.8504 26.1391 22.8276 26.1387C22.8047 26.1382 22.7818 26.138 22.759 26.1379V26.138ZM19.2696 28.8676C19.2654 28.8846 19.2614 28.9016 19.2576 28.9186C19.2614 28.9016 19.2654 28.8846 19.2696 28.8676ZM20.2264 32.1401C20.2426 32.1559 20.259 32.1716 20.2755 32.1872C20.2919 32.2028 20.3085 32.2182 20.3252 32.2335C20.342 32.2488 20.359 32.2639 20.376 32.2788C20.3931 32.2937 20.4103 32.3085 20.4276 32.323C20.4276 32.3232 20.4276 32.3233 20.4276 32.3234C20.4103 32.3088 20.3931 32.2941 20.376 32.2792C20.359 32.2642 20.342 32.2491 20.3252 32.2339C20.3085 32.2186 20.2919 32.2031 20.2755 32.1875C20.259 32.172 20.2426 32.1563 20.2264 32.1404C20.2264 32.1403 20.2264 32.1402 20.2264 32.1401ZM20.428 32.3234C20.4453 32.3379 20.4627 32.3523 20.4803 32.3665C20.4803 32.3667 20.4803 32.3668 20.4803 32.3669C20.4627 32.3526 20.4453 32.3381 20.428 32.3234V32.3234ZM20.4806 32.3669C20.4982 32.3811 20.5158 32.3951 20.5336 32.409C20.5515 32.4229 20.5696 32.4367 20.5878 32.4504C20.6059 32.464 20.6242 32.4774 20.6426 32.4907C20.6426 32.4908 20.6426 32.4909 20.6426 32.491C20.6242 32.4778 20.6059 32.4643 20.5878 32.4507C20.5696 32.4371 20.5515 32.4233 20.5336 32.4094C20.5158 32.3954 20.4982 32.3812 20.4806 32.3669V32.3669ZM24.9284 32.4514C24.9284 32.4515 24.9284 32.4517 24.9284 32.4518C24.9102 32.4654 24.8919 32.4788 24.8735 32.4921C24.855 32.5053 24.8364 32.5184 24.8176 32.5313C24.799 32.5442 24.7802 32.5569 24.7613 32.5695C24.7423 32.582 24.7232 32.5944 24.7039 32.6066C24.6848 32.6188 24.6656 32.6308 24.6462 32.6426C24.6462 32.6425 24.6462 32.6423 24.6462 32.6422C24.6656 32.6304 24.6848 32.6184 24.7039 32.6062C24.7232 32.594 24.7423 32.5817 24.7613 32.5691C24.7802 32.5566 24.799 32.5438 24.8176 32.531C24.8364 32.5182 24.855 32.5052 24.8735 32.4921C24.8735 32.492 24.8735 32.4918 24.8735 32.4917C24.8919 32.4785 24.9102 32.465 24.9284 32.4514V32.4514ZM20.643 32.491C20.6613 32.5041 20.6799 32.5171 20.6985 32.5299C20.7172 32.5428 20.7359 32.5555 20.7548 32.568C20.7548 32.5682 20.7548 32.5683 20.7548 32.5684C20.7359 32.5559 20.7172 32.5431 20.6985 32.5303C20.6799 32.5173 20.6613 32.5043 20.643 32.491V32.491ZM20.7552 32.5684C20.774 32.5808 20.7931 32.5931 20.8122 32.6051C20.8313 32.6174 20.8506 32.6296 20.8699 32.6415C20.8699 32.6416 20.8699 32.6418 20.8699 32.6419C20.8506 32.6299 20.8313 32.6178 20.8122 32.6055C20.7931 32.5933 20.774 32.5809 20.7552 32.5684V32.5684ZM20.8703 32.6419C20.8897 32.6536 20.9091 32.6651 20.9287 32.6765C20.9484 32.6879 20.9681 32.6992 20.9879 32.7103C21.0078 32.7215 21.0278 32.7324 21.0479 32.7431C21.068 32.7538 21.0882 32.7643 21.1085 32.7745C21.1287 32.7849 21.1491 32.7952 21.1695 32.8052C21.1695 32.8053 21.1695 32.8054 21.1695 32.8056C21.1491 32.7955 21.1287 32.7853 21.1085 32.7749C21.0882 32.7646 21.068 32.7542 21.0479 32.7435C21.0278 32.7328 21.0078 32.7218 20.9879 32.7107C20.9681 32.6996 20.9484 32.6883 20.9287 32.6768C20.9091 32.6654 20.8897 32.6537 20.8703 32.6419V32.6419ZM24.5874 32.6772C24.5874 32.6773 24.5874 32.6774 24.5874 32.6775C24.5678 32.689 24.548 32.7003 24.5282 32.7114C24.5083 32.7225 24.4883 32.7335 24.4683 32.7442C24.4482 32.755 24.4279 32.7656 24.4076 32.776C24.3873 32.7863 24.3668 32.7964 24.3463 32.8063C24.3258 32.8162 24.3052 32.826 24.2845 32.8355C24.2638 32.8451 24.243 32.8545 24.2221 32.8637C24.2012 32.8729 24.1803 32.882 24.1592 32.8908C24.1383 32.8996 24.1172 32.9081 24.0961 32.9165C24.0748 32.9249 24.0535 32.9331 24.0321 32.9411C24.0108 32.949 23.9894 32.9567 23.9679 32.9643C23.9463 32.9718 23.9246 32.9792 23.9029 32.9864C23.8813 32.9936 23.8596 33.0006 23.8379 33.0074C23.816 33.0142 23.7941 33.0207 23.7721 33.027C23.7502 33.0334 23.7281 33.0396 23.706 33.0456C23.6841 33.0515 23.662 33.0572 23.6399 33.0627C23.6177 33.0683 23.5955 33.0736 23.5731 33.0787C23.5509 33.0838 23.5286 33.0887 23.5063 33.0934C23.5063 33.0932 23.5063 33.0931 23.5063 33.093C23.5286 33.0883 23.5509 33.0835 23.5731 33.0784C23.5955 33.0732 23.6177 33.0679 23.6399 33.0623C23.662 33.0568 23.6841 33.0511 23.706 33.0452C23.7281 33.0392 23.7502 33.0331 23.7721 33.0267C23.7941 33.0203 23.816 33.0138 23.8379 33.0071C23.8596 33.0002 23.8813 32.9932 23.9029 32.986C23.9246 32.9789 23.9463 32.9715 23.9679 32.9639C23.9894 32.9564 24.0108 32.9487 24.0321 32.9407C24.0535 32.9327 24.0748 32.9245 24.0961 32.9161C24.1172 32.9078 24.1383 32.8992 24.1592 32.8904C24.1803 32.8816 24.2012 32.8726 24.2221 32.8633C24.243 32.8541 24.2638 32.8447 24.2845 32.8352C24.3052 32.8256 24.3258 32.8159 24.3463 32.8059C24.3668 32.796 24.3873 32.7859 24.4076 32.7756C24.4279 32.7652 24.4482 32.7546 24.4683 32.7439C24.4883 32.7331 24.5083 32.7222 24.5282 32.7111C24.548 32.6999 24.5678 32.6887 24.5874 32.6772ZM21.1699 32.8056C21.1904 32.8154 21.2109 32.825 21.2316 32.8344C21.2522 32.844 21.2729 32.8534 21.2937 32.8626C21.3146 32.8719 21.3355 32.8809 21.3565 32.8897C21.3565 32.8898 21.3565 32.89 21.3565 32.8901C21.3355 32.8813 21.3146 32.8722 21.2937 32.863C21.2729 32.8538 21.2522 32.8444 21.2316 32.8348C21.2109 32.8253 21.1904 32.8155 21.1699 32.8056V32.8056ZM21.3569 32.8901C21.3779 32.8987 21.3989 32.9072 21.4201 32.9154C21.4413 32.9238 21.4626 32.932 21.484 32.94C21.5053 32.9479 21.5268 32.9557 21.5483 32.9632C21.5697 32.9709 21.5913 32.9784 21.6129 32.9857C21.6346 32.9928 21.6564 32.9997 21.6783 33.0063C21.7001 33.0132 21.722 33.0199 21.744 33.0263C21.7658 33.0326 21.7878 33.0386 21.8097 33.0445C21.8318 33.0505 21.854 33.0564 21.8762 33.062C21.8983 33.0675 21.9204 33.0729 21.9426 33.078C21.965 33.0831 21.9874 33.088 22.0098 33.0926C22.0322 33.0974 22.0546 33.1019 22.077 33.1062C22.0995 33.1105 22.122 33.1145 22.1445 33.1183C22.167 33.1222 22.1895 33.1259 22.2121 33.1294C22.2347 33.1328 22.2573 33.136 22.28 33.139C22.3027 33.1419 22.3255 33.1447 22.3483 33.1472C22.3709 33.1498 22.3935 33.1522 22.4162 33.1543C22.439 33.1565 22.4619 33.1583 22.4848 33.16C22.5075 33.1618 22.5303 33.1633 22.5531 33.1647C22.5759 33.166 22.5988 33.167 22.6217 33.1679C22.6446 33.1687 22.6675 33.1693 22.6903 33.1697C22.7132 33.1702 22.7361 33.1704 22.759 33.1704C22.7811 33.1704 22.8033 33.1702 22.8254 33.1697C22.8483 33.1693 22.8712 33.1687 22.8941 33.1679C22.9169 33.167 22.9398 33.166 22.9627 33.1647C22.9856 33.1635 23.0085 33.162 23.0313 33.1604C23.0541 33.1586 23.0769 33.1566 23.0996 33.1543C23.1224 33.1523 23.1451 33.15 23.1679 33.1476C23.1905 33.1449 23.2132 33.1421 23.2358 33.139C23.2584 33.136 23.2811 33.1328 23.3037 33.1294C23.3263 33.126 23.349 33.1225 23.3716 33.1187C23.394 33.1148 23.4164 33.1108 23.4388 33.1065C23.4612 33.1024 23.4836 33.098 23.5059 33.0933C23.4836 33.0981 23.4612 33.1026 23.4388 33.1069C23.4164 33.1111 23.394 33.1152 23.3716 33.119C23.349 33.1228 23.3263 33.1264 23.3037 33.1297C23.2811 33.1331 23.2584 33.1363 23.2358 33.1393C23.2132 33.1424 23.1905 33.1453 23.1679 33.1479C23.1451 33.1504 23.1224 33.1526 23.0996 33.1547C23.0769 33.1569 23.0541 33.1589 23.0313 33.1607C23.0085 33.1624 22.9856 33.1638 22.9627 33.165C22.9398 33.1663 22.9169 33.1674 22.8941 33.1682C22.8712 33.1691 22.8483 33.1697 22.8254 33.1701C22.8033 33.1705 22.7811 33.1707 22.759 33.1708C22.7361 33.1708 22.7132 33.1705 22.6903 33.1701C22.6675 33.1697 22.6446 33.1691 22.6217 33.1682C22.5988 33.1674 22.5759 33.1663 22.5531 33.165C22.5303 33.1637 22.5075 33.1621 22.4848 33.1604C22.4619 33.1587 22.439 33.1568 22.4162 33.1547C22.3935 33.1525 22.3709 33.1501 22.3483 33.1475C22.3255 33.145 22.3027 33.1423 22.28 33.1393C22.2573 33.1363 22.2347 33.1331 22.2121 33.1297C22.1895 33.1262 22.167 33.1226 22.1445 33.1187C22.122 33.1148 22.0995 33.1108 22.077 33.1065C22.0546 33.1022 22.0322 33.0977 22.0098 33.093C21.9874 33.0883 21.965 33.0834 21.9426 33.0784C21.9204 33.0732 21.8983 33.0679 21.8762 33.0623C21.854 33.0567 21.8318 33.0509 21.8097 33.0448C21.7878 33.039 21.7658 33.0329 21.744 33.0266C21.722 33.0202 21.7001 33.0135 21.6783 33.0067C21.6564 33 21.6346 32.9931 21.6129 32.986C21.5913 32.9787 21.5697 32.9712 21.5483 32.9635C21.5268 32.956 21.5053 32.9483 21.484 32.9403C21.4626 32.9323 21.4413 32.9241 21.4201 32.9157C21.3989 32.9074 21.3779 32.8988 21.3569 32.8901V32.8901Z" fill="black"/>
<path opacity="0.997283" d="M47.9027 3.05176e-05L28.5252 19.0306C28.5199 19.0356 28.5145 19.0406 28.5092 19.0456L28.4286 19.1248L28.2826 19.2678L28.2779 19.2728L28.2772 19.2735C28.2568 19.2946 28.2366 19.3157 28.2165 19.337C28.1946 19.3602 28.1728 19.3835 28.1511 19.4069C28.1296 19.4303 28.1081 19.4538 28.0869 19.4775C28.0656 19.5013 28.0446 19.5252 28.0237 19.5492C28.0028 19.5732 27.9821 19.5973 27.9616 19.6216C27.941 19.6458 27.9205 19.6702 27.9002 19.6947C27.8799 19.7193 27.8599 19.744 27.8399 19.7689C27.82 19.7937 27.8003 19.8187 27.7807 19.8438C27.7612 19.8688 27.7418 19.894 27.7226 19.9194C27.7033 19.9448 27.6842 19.9704 27.6653 19.9961C27.6464 20.0216 27.6278 20.0473 27.6093 20.0731C27.5909 20.099 27.5726 20.125 27.5545 20.1512C27.5544 20.1512 27.5543 20.1512 27.5541 20.1512C27.536 20.1772 27.5181 20.2034 27.5004 20.2296C27.4827 20.256 27.4651 20.2825 27.4477 20.3092C27.4302 20.3357 27.4129 20.3623 27.3958 20.3891C27.3788 20.4159 27.362 20.4429 27.3453 20.47C27.3287 20.497 27.3122 20.5241 27.2959 20.5513C27.2796 20.5786 27.2636 20.6059 27.2476 20.6334C27.2317 20.6608 27.216 20.6884 27.2004 20.7161C27.1849 20.7438 27.1695 20.7716 27.1543 20.7995C27.1392 20.8275 27.1243 20.8556 27.1096 20.8837C27.1095 20.8837 27.1094 20.8837 27.1093 20.8837C27.0946 20.9118 27.08 20.94 27.0657 20.9682C27.0513 20.9964 27.0372 21.0247 27.0232 21.0531C27.0092 21.0817 26.9954 21.1103 26.9818 21.1391C26.9682 21.1676 26.9547 21.1963 26.9415 21.225C26.9285 21.2539 26.9156 21.2829 26.903 21.312C26.9029 21.312 26.9028 21.312 26.9026 21.312C26.8898 21.3409 26.8773 21.37 26.8649 21.399C26.8527 21.4283 26.8407 21.4577 26.8289 21.4871C26.8288 21.4871 26.8287 21.4871 26.8286 21.4871C26.8165 21.5164 26.8046 21.5458 26.793 21.5752C26.7814 21.6047 26.77 21.6343 26.7588 21.664C26.7477 21.6937 26.7368 21.7234 26.7261 21.7532C26.7154 21.7829 26.7049 21.8128 26.6946 21.8427C26.6842 21.8726 26.674 21.9025 26.6641 21.9326C26.6542 21.9627 26.6445 21.9929 26.635 22.0232C26.6255 22.0533 26.6162 22.0835 26.607 22.1137C26.598 22.1441 26.5892 22.1745 26.5805 22.205C26.5718 22.2355 26.5634 22.2661 26.5551 22.2967C26.5469 22.3272 26.5389 22.3577 26.5311 22.3883C26.5233 22.4191 26.5157 22.4499 26.5083 22.4807C26.5009 22.5115 26.4938 22.5422 26.4868 22.5731C26.4798 22.6039 26.4731 22.6348 26.4665 22.6658C26.46 22.6967 26.4537 22.7276 26.4476 22.7585C26.4416 22.7896 26.4358 22.8208 26.4302 22.852C26.4245 22.8831 26.4191 22.9142 26.4138 22.9454C26.4086 22.9765 26.4035 23.0077 26.3986 23.0388C26.3938 23.0702 26.3892 23.1016 26.3848 23.133C26.3805 23.1642 26.3764 23.1955 26.3725 23.2268C26.3685 23.2581 26.3647 23.2895 26.3612 23.3209C26.3577 23.3524 26.3545 23.3839 26.3514 23.4154C26.3484 23.4469 26.3456 23.4784 26.3431 23.51C26.3404 23.5414 26.338 23.5729 26.3358 23.6045C26.3335 23.6359 26.3315 23.6675 26.3296 23.699C26.328 23.7306 26.3265 23.7622 26.3253 23.7938C26.324 23.8254 26.3229 23.8571 26.322 23.8887C26.3211 23.9202 26.3203 23.9517 26.3198 23.9832C26.3194 24.0148 26.3191 24.0464 26.3191 24.0781C26.3192 24.0896 26.3193 24.1011 26.3195 24.1127C26.3196 24.1442 26.32 24.1757 26.3206 24.2072C26.3212 24.2388 26.3221 24.2704 26.3231 24.302C26.3241 24.3337 26.3253 24.3653 26.3268 24.3969C26.3282 24.4284 26.3299 24.4599 26.3318 24.4914C26.3338 24.5229 26.336 24.5544 26.3384 24.5859C26.3384 24.586 26.3384 24.5862 26.3384 24.5863C26.3407 24.6178 26.3432 24.6493 26.346 24.6808C26.3488 24.7123 26.3518 24.7438 26.3551 24.7753C26.3582 24.8067 26.3616 24.8381 26.3652 24.8694C26.3689 24.9009 26.3728 24.9322 26.3769 24.9636C26.381 24.9949 26.3854 25.0262 26.3899 25.0574C26.3944 25.0887 26.3992 25.1199 26.4041 25.1512C26.409 25.1825 26.414 25.2137 26.4193 25.245C26.4248 25.2762 26.4305 25.3073 26.4364 25.3384C26.4422 25.3695 26.4483 25.4005 26.4546 25.4315C26.4608 25.4624 26.4672 25.4934 26.4738 25.5242C26.4805 25.5552 26.4874 25.5861 26.4945 25.6169C26.5017 25.6478 26.5091 25.6786 26.5167 25.7093C26.5242 25.74 26.532 25.7707 26.5399 25.8013C26.5478 25.8319 26.5559 25.8625 26.5642 25.893C26.5726 25.9235 26.5812 25.9539 26.59 25.9843C26.5989 26.0146 26.608 26.045 26.6173 26.0752C26.6265 26.1055 26.6359 26.1357 26.6456 26.1658C26.6456 26.1659 26.6456 26.166 26.6456 26.1662C26.6552 26.1963 26.665 26.2264 26.675 26.2564C26.6851 26.2864 26.6954 26.3164 26.7059 26.3463C26.7163 26.3762 26.727 26.406 26.7378 26.4358C26.7487 26.4655 26.7599 26.4951 26.7712 26.5246C26.7825 26.5541 26.794 26.5836 26.8057 26.613C26.8175 26.6425 26.8295 26.6718 26.8417 26.7011C26.8537 26.7304 26.8659 26.7597 26.8784 26.7888C26.891 26.8179 26.9038 26.8469 26.9168 26.8759C26.9297 26.9048 26.9428 26.9337 26.9561 26.9625C26.9694 26.9913 26.983 27.0199 26.9967 27.0485C27.0105 27.0771 27.0244 27.1056 27.0385 27.1341C27.0526 27.1625 27.0669 27.1907 27.0814 27.2189C27.0959 27.2472 27.1107 27.2754 27.1256 27.3035C27.1405 27.3314 27.1555 27.3592 27.1707 27.3869C27.186 27.4147 27.2015 27.4424 27.2172 27.47C27.2328 27.4977 27.2487 27.5253 27.2647 27.5528C27.2809 27.5801 27.2972 27.6073 27.3138 27.6344C27.3302 27.6616 27.3467 27.6887 27.3635 27.7157C27.3803 27.7427 27.3972 27.7696 27.4143 27.7963C27.4316 27.8231 27.449 27.8497 27.4666 27.8762C27.4841 27.9026 27.5018 27.9289 27.5197 27.955C27.5376 27.9813 27.5558 28.0075 27.5741 28.0335C27.5924 28.0595 27.6107 28.0854 27.6293 28.1112C27.648 28.137 27.6669 28.1627 27.686 28.1883C27.7049 28.2137 27.7241 28.239 27.7434 28.2642C27.7628 28.2894 27.7824 28.3145 27.8022 28.3395C27.8022 28.3396 27.8022 28.3397 27.8022 28.3399C27.8219 28.3648 27.8417 28.3897 27.8617 28.4144C27.8818 28.4391 27.902 28.4637 27.9224 28.4882C27.9427 28.5127 27.9631 28.5371 27.9837 28.5613C28.0045 28.5855 28.0255 28.6095 28.0466 28.6334C28.0676 28.6573 28.0888 28.6811 28.1101 28.7047C28.1315 28.7282 28.1531 28.7517 28.1748 28.7749C28.1965 28.7983 28.2184 28.8215 28.2405 28.8445C28.2582 28.863 28.276 28.8814 28.2939 28.8998C28.2982 28.9043 28.3026 28.9088 28.3069 28.9133L28.4776 29.0809C28.4892 29.092 28.5008 29.1031 28.5125 29.1141C28.5357 29.1359 28.5591 29.1575 28.5826 29.179C28.5826 29.1791 28.5826 29.1792 28.5826 29.1794C28.5591 29.1579 28.5357 29.1363 28.5125 29.1145C28.5008 29.1034 28.4892 29.0924 28.4776 29.0813L35.5225 36H45.6113L38.4553 28.9722C38.4553 28.972 38.4553 28.9719 38.4553 28.9718L33.4258 24.0324L38.4193 19.1491C38.4194 19.1492 38.4196 19.1493 38.4197 19.1494L57.9998 6.81311e-05L47.9027 3.05176e-05ZM38.4026 29.0238C38.4026 29.024 38.4026 29.0241 38.4026 29.0242C38.3798 29.0465 38.3568 29.0686 38.3336 29.0905C38.3105 29.1124 38.2873 29.1342 38.2639 29.1558C38.2404 29.1775 38.2168 29.199 38.1931 29.2203C38.1694 29.2415 38.1455 29.2626 38.1215 29.2835C38.1455 29.2625 38.1694 29.2413 38.1931 29.22C38.2168 29.1986 38.2404 29.1771 38.2639 29.1554C38.2873 29.1338 38.3105 29.1121 38.3336 29.0902C38.3568 29.0682 38.3798 29.0461 38.4026 29.0238V29.0238ZM28.5829 29.1793C28.6064 29.2008 28.63 29.222 28.6537 29.2432C28.6776 29.2644 28.7015 29.2854 28.7256 29.3063C28.7498 29.3271 28.7742 29.3478 28.7986 29.3683C28.8231 29.3888 28.8476 29.4092 28.8724 29.4293C28.8724 29.4295 28.8724 29.4296 28.8724 29.4297C28.8476 29.4095 28.8231 29.3892 28.7986 29.3687C28.7742 29.3482 28.7498 29.3275 28.7256 29.3067C28.7015 29.2858 28.6776 29.2647 28.6537 29.2435C28.63 29.2223 28.6064 29.2009 28.5829 29.1793V29.1793ZM38.1212 29.2835C38.1212 29.2836 38.1212 29.2837 38.1212 29.2838C38.0971 29.3048 38.0729 29.3256 38.0485 29.3462C38.0242 29.367 37.9998 29.3875 37.9752 29.4079C37.9505 29.4282 37.9257 29.4483 37.9007 29.4682C37.8758 29.4882 37.8508 29.5081 37.8256 29.5278C37.8005 29.5474 37.7753 29.5669 37.75 29.5863C37.7753 29.5668 37.8005 29.5472 37.8256 29.5274C37.8508 29.5077 37.8758 29.4879 37.9007 29.4679C37.9257 29.4479 37.9505 29.4278 37.9752 29.4076C37.9998 29.3872 38.0242 29.3666 38.0485 29.3459C38.0729 29.3252 38.0971 29.3044 38.1212 29.2835V29.2835ZM28.8727 29.4297C28.8974 29.4498 28.9222 29.4698 28.9472 29.4896C28.9472 29.4897 28.9472 29.4898 28.9472 29.49C28.9222 29.47 28.8974 29.4499 28.8727 29.4297V29.4297ZM28.9475 29.49C28.9724 29.5097 28.9975 29.5294 29.0227 29.5488C29.048 29.5683 29.0734 29.5877 29.099 29.6069C29.1245 29.6261 29.1501 29.6451 29.1759 29.664C29.2017 29.6829 29.2276 29.7017 29.2536 29.7203C29.2536 29.7205 29.2536 29.7206 29.2536 29.7207C29.2276 29.7021 29.2017 29.6833 29.1759 29.6644C29.1501 29.6455 29.1245 29.6265 29.099 29.6073C29.0734 29.5881 29.048 29.5687 29.0227 29.5492C28.9975 29.5296 28.9724 29.5099 28.9475 29.49V29.49ZM37.7497 29.5862C37.7497 29.5864 37.7497 29.5865 37.7497 29.5866C37.7243 29.6059 37.6987 29.6251 37.673 29.644C37.6473 29.663 37.6214 29.6818 37.5953 29.7004C37.5694 29.7191 37.5434 29.7376 37.5173 29.756C37.491 29.7743 37.4646 29.7923 37.4381 29.8102C37.4117 29.8281 37.3852 29.8458 37.3586 29.8634C37.3852 29.8457 37.4117 29.8279 37.4381 29.8099C37.4646 29.792 37.491 29.7739 37.5173 29.7557C37.5434 29.7373 37.5694 29.7187 37.5953 29.7C37.6214 29.6814 37.6473 29.6626 37.673 29.6437C37.6987 29.6247 37.7243 29.6056 37.7497 29.5863V29.5862ZM29.254 29.7207C29.28 29.7391 29.3062 29.7572 29.3325 29.7753C29.3587 29.7935 29.3851 29.8116 29.4116 29.8295C29.4382 29.8472 29.465 29.8648 29.4919 29.8823C29.5186 29.8997 29.5455 29.9169 29.5725 29.934C29.5725 29.9341 29.5725 29.9342 29.5725 29.9343C29.5455 29.9173 29.5186 29.9 29.4919 29.8826C29.465 29.8652 29.4382 29.8476 29.4116 29.8298C29.3851 29.8119 29.3587 29.7939 29.3325 29.7756C29.3062 29.7575 29.28 29.7392 29.254 29.7207V29.7207ZM37.3582 29.8633C37.3582 29.8635 37.3582 29.8636 37.3582 29.8637C37.3315 29.8813 37.3046 29.8986 37.2776 29.9158C37.2507 29.933 37.2237 29.95 37.1966 29.9668C37.2237 29.9498 37.2507 29.9327 37.2776 29.9154C37.3046 29.8983 37.3315 29.8809 37.3582 29.8634V29.8633ZM29.5728 29.9343C29.5998 29.9514 29.627 29.9683 29.6542 29.985C29.6814 30.0017 29.7088 30.0182 29.7363 30.0345C29.7363 30.0347 29.7363 30.0348 29.7363 30.0349C29.7088 30.0186 29.6814 30.002 29.6542 29.9853C29.627 29.9685 29.5998 29.9515 29.5728 29.9343V29.9343ZM37.1962 29.9668C37.1962 29.9669 37.1962 29.967 37.1962 29.9671C37.169 29.984 37.1416 30.0006 37.1142 30.0171C37.0868 30.0335 37.0593 30.0498 37.0317 30.0659C37.0317 30.0658 37.0317 30.0657 37.0317 30.0656C37.0593 30.0495 37.0868 30.0332 37.1142 30.0167C37.1416 30.0002 37.169 29.9836 37.1962 29.9668ZM29.7366 30.0349C29.7641 30.0511 29.7917 30.0672 29.8194 30.083C29.8472 30.099 29.875 30.1148 29.9029 30.1305C29.9309 30.1461 29.959 30.1616 29.9872 30.1768C29.9872 30.177 29.9872 30.1771 29.9872 30.1772C29.959 30.1619 29.9309 30.1465 29.9029 30.1308C29.875 30.1152 29.8472 30.0994 29.8194 30.0834C29.7917 30.0674 29.7641 30.0513 29.7366 30.0349V30.0349ZM36.9482 30.1137C36.9482 30.1138 36.9482 30.1139 36.9482 30.1141C36.9204 30.1298 36.8924 30.1454 36.8643 30.1608C36.8362 30.1762 36.808 30.1914 36.7797 30.2064C36.7514 30.2214 36.7229 30.2361 36.6944 30.2507C36.6659 30.2652 36.6374 30.2796 36.6087 30.2938C36.6374 30.2795 36.6659 30.265 36.6944 30.2503C36.7229 30.2358 36.7514 30.221 36.7797 30.2061C36.808 30.1911 36.8362 30.1758 36.8643 30.1604C36.8924 30.145 36.9204 30.1295 36.9482 30.1137V30.1137ZM29.9876 30.1772C30.0157 30.1924 30.0439 30.2073 30.0722 30.2221C30.1005 30.2371 30.129 30.2518 30.1575 30.2663C30.1861 30.2808 30.2148 30.2951 30.2436 30.3091C30.2436 30.3093 30.2436 30.3094 30.2436 30.3095C30.2148 30.2954 30.1861 30.2812 30.1575 30.2667C30.129 30.2522 30.1005 30.2374 30.0722 30.2225C30.0439 30.2076 30.0157 30.1925 29.9876 30.1772V30.1772ZM36.6083 30.2938C36.6083 30.2939 36.6083 30.2941 36.6083 30.2942C36.5796 30.3084 36.5508 30.3224 36.5219 30.3363C36.4931 30.3501 36.4641 30.3638 36.4351 30.3773C36.406 30.3907 36.3769 30.4039 36.3476 30.4169C36.3769 30.4037 36.406 30.3904 36.4351 30.3769C36.4641 30.3634 36.4931 30.3498 36.5219 30.3359C36.5508 30.3221 36.5796 30.308 36.6083 30.2938V30.2938ZM30.2439 30.3095C30.2726 30.3235 30.3015 30.3373 30.3304 30.3509C30.3593 30.3646 30.3884 30.3782 30.4175 30.3915C30.4175 30.3916 30.4175 30.3918 30.4175 30.3919C30.3884 30.3785 30.3593 30.365 30.3304 30.3512C30.3015 30.3375 30.2726 30.3236 30.2439 30.3095V30.3095ZM30.4179 30.3919C30.447 30.4051 30.4761 30.4182 30.5054 30.4311C30.5347 30.444 30.5641 30.4567 30.5936 30.4693C30.5936 30.4694 30.5936 30.4695 30.5936 30.4696C30.5641 30.4571 30.5347 30.4444 30.5054 30.4315C30.4761 30.4185 30.447 30.4053 30.4179 30.3919V30.3919ZM36.3472 30.4168C36.3472 30.417 36.3472 30.4171 36.3472 30.4172C36.318 30.4302 36.2887 30.4431 36.2593 30.4557C36.2593 30.4556 36.2593 30.4555 36.2593 30.4554C36.2887 30.4427 36.318 30.4299 36.3472 30.4168ZM30.594 30.4696C30.6234 30.4821 30.653 30.4943 30.6826 30.5064C30.7123 30.5186 30.7421 30.5306 30.7719 30.5424C30.8018 30.5541 30.8317 30.5656 30.8616 30.577C30.8616 30.5771 30.8616 30.5772 30.8616 30.5773C30.8317 30.566 30.8018 30.5545 30.7719 30.5427C30.7421 30.5309 30.7123 30.5189 30.6826 30.5067C30.653 30.4945 30.6234 30.4822 30.594 30.4696V30.4696ZM36.1704 30.4932C36.1704 30.4933 36.1704 30.4934 36.1704 30.4935C36.1408 30.5057 36.1111 30.5177 36.0814 30.5295C36.0516 30.5415 36.0217 30.5533 35.9917 30.5648C35.9618 30.5763 35.9318 30.5876 35.9017 30.5987C35.8715 30.6099 35.8412 30.6208 35.8109 30.6315C35.7806 30.6422 35.7502 30.6527 35.7197 30.6629C35.6893 30.6732 35.6588 30.6833 35.6282 30.6932C35.5977 30.7031 35.567 30.7127 35.5363 30.7221C35.5057 30.7316 35.4749 30.7409 35.4441 30.7499C35.4133 30.7591 35.3824 30.768 35.3515 30.7767C35.3204 30.7853 35.2893 30.7938 35.2582 30.802C35.2271 30.8102 35.196 30.8181 35.1648 30.8259C35.1337 30.8337 35.1024 30.8413 35.0712 30.8487C35.0399 30.8562 35.0085 30.8634 34.9771 30.8705C34.9458 30.8775 34.9144 30.8842 34.883 30.8908C34.8515 30.8973 34.8199 30.9036 34.7883 30.9097C34.7567 30.9159 34.7251 30.9218 34.6935 30.9275C34.6618 30.9333 34.6301 30.9389 34.5983 30.9443C34.5667 30.9495 34.5349 30.9545 34.5032 30.9593C34.4714 30.9642 34.4396 30.969 34.4077 30.9735C34.3758 30.9779 34.3438 30.9821 34.3118 30.986C34.2799 30.99 34.2479 30.9938 34.216 30.9974C34.184 31.0011 34.1521 31.0045 34.1201 31.0078C34.088 31.0108 34.056 31.0137 34.0239 31.0163C33.9918 31.0192 33.9597 31.0218 33.9276 31.0242C33.8956 31.0264 33.8635 31.0284 33.8314 31.0302C33.7992 31.0321 33.767 31.0338 33.7348 31.0352C33.7027 31.0366 33.6706 31.0378 33.6386 31.0388C33.6064 31.0399 33.5742 31.0407 33.542 31.0413C33.5098 31.0419 33.4776 31.0423 33.4454 31.0424C33.4338 31.0426 33.4221 31.0427 33.4105 31.0428C33.3783 31.0427 33.3461 31.0425 33.3139 31.042C33.2817 31.0415 33.2495 31.0408 33.2173 31.0399C33.1851 31.039 33.1529 31.038 33.1207 31.0367C33.0886 31.0355 33.0566 31.0341 33.0245 31.0324C32.9923 31.0306 32.9601 31.0286 32.9279 31.0264C32.8958 31.0242 32.8637 31.0218 32.8317 31.0192C32.7996 31.0167 32.7675 31.014 32.7354 31.011C32.7035 31.008 32.6715 31.0048 32.6396 31.0014C32.6076 30.9979 32.5756 30.9942 32.5437 30.9903C32.5117 30.9865 32.4798 30.9825 32.4478 30.9782C32.416 30.9739 32.3841 30.9694 32.3523 30.9647C32.3205 30.9599 32.2886 30.9549 32.2568 30.9497C32.2251 30.9445 32.1934 30.9392 32.1617 30.9336C32.13 30.9281 32.0984 30.9224 32.0669 30.9165C32.0353 30.9106 32.0037 30.9044 31.9721 30.898C31.9406 30.8915 31.9091 30.8849 31.8777 30.878C31.8463 30.8712 31.8149 30.8642 31.7836 30.857C31.7524 30.8497 31.7211 30.8422 31.69 30.8345C31.6587 30.8269 31.6274 30.819 31.5963 30.811C31.5651 30.8028 31.534 30.7945 31.5029 30.786C31.472 30.7775 31.4411 30.7688 31.4103 30.76C31.3794 30.751 31.3485 30.7419 31.3177 30.7325C31.287 30.7232 31.2564 30.7137 31.2259 30.704C31.1952 30.6942 31.1645 30.6842 31.134 30.674C31.1035 30.6639 31.0732 30.6535 31.0428 30.643C31.0125 30.6325 30.9822 30.6218 30.9521 30.6109C30.922 30.5999 30.8919 30.5887 30.862 30.5774C30.8919 30.5886 30.922 30.5997 30.9521 30.6105C30.9822 30.6214 31.0125 30.6321 31.0428 30.6426C31.0732 30.6532 31.1035 30.6635 31.134 30.6737C31.1645 30.6838 31.1952 30.6938 31.2259 30.7036C31.2564 30.7133 31.287 30.7228 31.3177 30.7321C31.3485 30.7415 31.3794 30.7507 31.4103 30.7596C31.4411 30.7685 31.472 30.7772 31.5029 30.7856C31.534 30.7942 31.5651 30.8025 31.5963 30.8106C31.6274 30.8187 31.6587 30.8265 31.69 30.8341C31.7211 30.8418 31.7524 30.8493 31.7836 30.8566C31.8149 30.8638 31.8463 30.8708 31.8777 30.8777C31.9091 30.8845 31.9406 30.8912 31.9721 30.8976C32.0037 30.904 32.0353 30.9102 32.0669 30.9162C32.0984 30.9221 32.13 30.9278 32.1617 30.9333C32.1934 30.9388 32.2251 30.9442 32.2568 30.9493C32.2886 30.9545 32.3205 30.9595 32.3523 30.9643C32.3841 30.969 32.416 30.9735 32.4478 30.9778C32.4798 30.9821 32.5117 30.9861 32.5437 30.99C32.5756 30.9939 32.6076 30.9976 32.6396 31.001C32.6715 31.0044 32.7035 31.0076 32.7354 31.0106C32.7675 31.0136 32.7996 31.0163 32.8317 31.0188C32.8637 31.0214 32.8958 31.0238 32.9279 31.026C32.9601 31.0282 32.9923 31.0302 33.0245 31.032C33.0566 31.0337 33.0886 31.0351 33.1207 31.0363C33.1529 31.0376 33.1851 31.0387 33.2173 31.0395C33.2495 31.0405 33.2817 31.0412 33.3139 31.0417C33.3461 31.0421 33.3783 31.0424 33.4105 31.0424C33.4221 31.0423 33.4338 31.0422 33.4454 31.042C33.4776 31.0419 33.5098 31.0415 33.542 31.0409C33.5742 31.0403 33.6064 31.0395 33.6386 31.0384C33.6706 31.0375 33.7027 31.0363 33.7348 31.0349C33.767 31.0334 33.7992 31.0318 33.8314 31.0299C33.8635 31.0281 33.8956 31.0261 33.9276 31.0238C33.9597 31.0214 33.9918 31.0188 34.0239 31.016C34.056 31.0133 34.088 31.0105 34.1201 31.0074C34.1521 31.0042 34.184 31.0007 34.216 30.9971C34.2479 30.9935 34.2799 30.9897 34.3118 30.9857C34.3438 30.9817 34.3758 30.9776 34.4077 30.9732C34.4396 30.9686 34.4714 30.9639 34.5032 30.9589C34.5349 30.9541 34.5667 30.9491 34.5983 30.9439C34.6301 30.9386 34.6618 30.933 34.6935 30.9272C34.7251 30.9214 34.7567 30.9155 34.7883 30.9093C34.8199 30.9032 34.8515 30.8969 34.883 30.8904C34.9144 30.8839 34.9458 30.8771 34.9771 30.8701C35.0085 30.8631 35.0399 30.8558 35.0712 30.8484C35.1024 30.841 35.1337 30.8333 35.1648 30.8255C35.196 30.8178 35.2271 30.8098 35.2582 30.8016C35.2893 30.7934 35.3204 30.785 35.3515 30.7763C35.3824 30.7676 35.4133 30.7587 35.4441 30.7496C35.4749 30.7405 35.5057 30.7312 35.5363 30.7217C35.567 30.7123 35.5977 30.7027 35.6282 30.6929C35.6588 30.683 35.6893 30.6729 35.7197 30.6625C35.7502 30.6523 35.7806 30.6418 35.8109 30.6312C35.8412 30.6204 35.8715 30.6095 35.9017 30.5984C35.9318 30.5873 35.9618 30.576 35.9917 30.5645C36.0217 30.5529 36.0516 30.5411 36.0814 30.5292C36.1111 30.5174 36.1408 30.5054 36.1704 30.4931V30.4932Z" fill="#F20909"/>
</g>
<defs>
<clipPath id="clip0_101_90">
<rect width="58" height="36" fill="white"/>
</clipPath>
</defs>
</svg>
